<?xml version="1.0" standalone="no"?>
<!DOCTYPE svg PUBLIC "-//W3C//DTD SVG 20010904//EN"
 "http://www.w3.org/TR/2001/REC-SVG-20010904/DTD/svg10.dtd">
<svg version="1.0" xmlns="http://www.w3.org/2000/svg"
 width="85.000000pt" height="92.000000pt" viewBox="0 0 85.000000 92.000000"
 preserveAspectRatio="xMidYMid meet">
<metadata>
Created by potrace 1.16, written by Peter Selinger 2001-2019
</metadata>
<g transform="translate(0.000000,92.000000) scale(0.100000,-0.100000)"
fill="#000000" stroke="none">
<path d="M270 655 c0 -18 -5 -25 -20 -25 -19 0 -20 -7 -20 -109 l0 -109 58 5
c39 4 69 1 95 -10 l37 -16 0 30 c0 22 -5 29 -19 29 -25 0 -71 42 -71 64 0 18
35 22 45 6 11 -18 27 -11 20 9 -4 13 1 27 12 38 17 17 19 17 36 0 11 -11 16
-25 12 -38 -7 -20 9 -27 20 -9 10 16 45 12 45 -6 0 -22 -46 -64 -71 -64 -14 0
-19 -7 -19 -29 l0 -30 37 16 c26 11 56 14 95 10 l58 -5 0 109 c0 102 -1 109
-20 109 -15 0 -20 7 -20 25 0 22 -3 24 -32 19 -18 -3 -53 -18 -78 -33 l-45
-27 -45 27 c-25 15 -60 30 -77 33 -30 5 -33 3 -33 -19z"/>
<path d="M106 338 c-9 -5 -16 -18 -16 -28 0 -20 34 -45 49 -36 9 6 169 11 186
6 18 -5 35 0 35 10 0 6 -9 10 -21 10 -12 0 -19 5 -16 13 2 6 12 11 22 9 11 -2
15 2 13 10 -6 18 -69 18 -90 0 -16 -13 -18 -13 -24 2 -5 12 -19 16 -64 15 -31
-1 -64 -6 -74 -11z"/>
</g>
</svg>
